<svg xmlns="http://www.w3.org/2000/svg" width="1600" height="1600" viewBox="0 0 1200 1200" class="w-full h-auto" fill="#ffffff"><path d="M986.39 475.74H844.73L549.99 180.9c-54.516-54.422-142.82-54.422-197.34 0L129.39 404.12c-40.547 40.406-52.172 101.53-29.391 154.03a26.927 26.927 0 0 0 2.016 3.094 127.48 127.48 0 0 0-6.516 39.75v51.75c0 6.75 2.719 13.172 7.5 17.906 4.828 4.734 11.391 7.265 18.141 7.125h2.625a89.987 89.987 0 0 1 65.953 25.172c17.672 17.016 27.656 40.5 27.656 65.016s-9.984 47.953-27.656 64.969c-17.625 17.016-41.438 26.109-65.953 25.219h-2.484c-6.797-.328-13.36 2.297-18.141 7.125a25.076 25.076 0 0 0-7.5 17.859v51.75c0 33.14 13.172 64.969 36.609 88.406s55.219 36.609 88.406 36.609h765.74c33.14 0 64.922-13.172 88.359-36.61s36.609-55.265 36.609-88.405V882.9c0-6.797-2.72-13.266-7.547-17.953a25.095 25.095 0 0 0-18.188-7.078h-2.625a89.987 89.987 0 0 1-65.953-25.172c-17.672-17.016-27.656-40.5-27.656-65.016s9.984-47.953 27.656-64.97c17.625-17.015 41.438-26.108 65.953-25.218h2.484c6.75.093 13.266-2.438 18.141-7.125a25.13 25.13 0 0 0 7.64-17.86v-51.515c.048-33.141-13.077-65.016-36.515-88.5-23.391-23.484-55.22-36.703-88.36-36.75zm-821.63-36.234 222.74-223.26c35.062-34.828 91.688-34.828 126.74 0l259.87 259.5h-553.5a125.203 125.203 0 0 0-81.891 30.656 89.092 89.092 0 0 1 26.016-66.891zm896.86 189.74c-68.25 10.688-118.55 69.469-118.55 138.56s50.297 127.87 118.55 138.56v28.266c0 41.391-33.562 75-75 75H220.64c-41.438 0-75-33.609-75-75v-28.266c68.25-10.688 118.55-69.469 118.55-138.56s-50.297-127.87-118.55-138.56V600.98c0-41.391 33.562-75 75-75h765.74c41.391 0 75 33.609 75 75zm-562.5 71.625c-7.172-7.031-11.203-16.688-11.203-26.766 0-10.031 4.031-19.688 11.203-26.719 14.953-14.297 38.531-14.297 53.484 0 7.172 7.031 11.156 16.688 11.156 26.719 0 10.078-3.984 19.688-11.156 26.766-7.031 7.172-16.688 11.203-26.719 11.203-10.078 0-19.734-4.031-26.766-11.203zm208.5 101.39c10.547 10.781 13.594 26.859 7.734 40.734-5.812 13.922-19.453 22.969-34.547 22.969s-28.734-9.047-34.547-22.969c-5.859-13.875-2.812-29.953 7.735-40.734 7.078-7.266 16.734-11.344 26.859-11.344s19.828 4.078 26.906 11.344zm17.25-137.48-207.52 208.22c-9.797 9.75-25.641 9.75-35.438-.047-9.75-9.797-9.703-25.688.094-35.438l207.61-207.52c9.75-9.75 25.594-9.75 35.39 0 9.75 9.75 9.75 25.594 0 35.391z"></path></svg>