<svg xmlns="http://www.w3.org/2000/svg" width="1600" height="1600" viewBox="0 0 1200 1200" class="w-full h-auto" fill="#ffffff"><path d="M953.62 95.438H605.06c-53.062 0-96.375 43.125-96.375 96v144.19h-275.62c-45.75 0-83.062 37.125-83.062 82.875v288.56c0 45.75 37.312 82.875 83.062 82.875h125.44v66c0 7.5 4.5 14.438 11.625 17.25 2.25.938 4.687 1.5 7.125 1.5 4.875 0 9.75-1.875 13.312-5.438l79.312-79.312h51.562s1.5 0 2.437-.187v147.19c0 45.75 37.125 82.875 82.875 82.875h125.62v66.188c0 7.5 4.5 14.438 11.625 17.25 2.25.938 4.688 1.5 7.125 1.5 4.875 0 9.75-1.875 13.312-5.437l79.312-79.312h51.562c45.75 0 82.875-37.125 82.875-82.875V648.57c0-5.063-.562-9.938-1.312-14.812 42-10.312 73.312-48.188 73.312-93.188V191.45c0-53.062-43.312-96-96.375-96zm-432.19 657h-58.875c-2.625 0-5.25.375-7.687 1.5h-.188c-2.062.938-3.937 2.063-5.625 3.75l-52.875 52.875v-39.375c0-2.625-.562-5.063-1.5-7.313-2.812-6.75-9.562-11.438-17.25-11.438H233.245c-25.125 0-45.562-20.25-45.562-45.375v-288.56c0-24.938 20.438-45.375 45.562-45.375h288.19c.938 0 2.25 0 4.313.188 23.438 2.063 41.25 21.375 41.25 45.188v157.5c-25.688 14.062-43.312 41.062-43.312 72.375v103.88h-2.438zm419.06 184.5c0 24.938-20.438 45.375-45.375 45.375h-59.25c-2.438 0-4.875.563-7.125 1.5s-4.313 2.25-6.188 4.125l-52.875 52.875v-39.562c0-10.312-8.437-18.75-18.75-18.75h-144.38c-24.938 0-45.375-20.438-45.375-45.375v-288.56c0-24.938 20.438-45.375 45.375-45.375h290.998c.75 0 1.313.188 2.063.375 23.438 2.063 41.062 21.375 41.062 45v288.56zm72-396.56c0 29.812-22.5 54.375-51.375 58.125-13.5-17.812-33.562-30-57.375-32.438a65.945 65.945 0 0 0-8.438-.563h-288.56s-1.312.188-2.062.188V418.5c0-37.688-24.562-69.375-58.312-79.312v-147.75c0-32.25 26.438-58.5 58.875-58.5h348.56c32.438 0 58.875 26.25 58.875 58.5v348.94z"></path><path d="M887.62 341.62c10.312 0 18.75-8.438 18.75-18.75s-8.438-18.75-18.75-18.75h-30.375l6.563-27.562c2.437-10.125-3.75-20.25-13.875-22.5-10.125-2.438-20.25 3.75-22.5 13.875l-8.625 36.188h-49.125l6.562-27.562c2.438-10.125-3.75-20.25-13.875-22.5-10.125-2.438-20.25 3.75-22.5 13.875l-8.625 36.188h-59.812c-10.312 0-18.75 8.437-18.75 18.75s8.438 18.75 18.75 18.75h50.812l-11.625 48.75h-39.375c-10.312 0-18.75 8.437-18.75 18.75s8.438 18.75 18.75 18.75h30.375l-6.563 27.562c-2.437 10.125 3.75 20.25 13.875 22.5 1.5.375 3 .562 4.313.562 8.438 0 16.125-5.812 18.188-14.438l8.625-36.188h49.125l-6.563 27.562c-2.437 10.125 3.75 20.25 13.875 22.5 1.5.375 3 .563 4.313.563 8.438 0 16.125-5.813 18.188-14.438l8.625-36.188h59.812c10.312 0 18.75-8.438 18.75-18.75s-8.438-18.75-18.75-18.75h-50.812l11.625-48.75zm-89.438 48.75h-49.125l11.625-48.75h49.125zM377.25 466.31c-11.812-7.313-25.5-11.438-39.75-11.438-20.25 0-39.375 7.875-53.625 22.312-29.062 29.062-29.625 76.688 0 107.44l80.062 80.062c3.75 3.75 8.438 5.438 13.312 5.438s9.563-1.875 13.312-5.438l39.562-39.562 41.438-41.625c13.688-14.25 21.188-32.812 21.188-52.688s-7.875-39.375-22.312-53.625c-25.125-25.125-64.125-28.688-93.375-10.875zm0 158.62-67.5-67.5c-14.438-15-14.25-39.188.563-53.812 14.25-14.25 39.188-14.625 53.812-.562 0 0 .375.187.562.375l2.25 1.687c.75.563 1.5.938 2.25 1.313.188 0 .375.187.563.375.562.187 1.312.375 1.875.562.937.188 1.687.563 2.625.75H379.687c.938 0 1.875-.375 2.813-.75.562 0 1.312-.187 1.875-.562.187 0 .375-.188.562-.375.75-.375 1.5-.938 2.438-1.5.75-.563 1.5-.938 2.25-1.688 0 0 .375-.187.562-.375 15-14.438 39.188-14.062 53.812.563 7.313 7.312 11.25 16.875 11.25 27.188s-3.75 19.5-9.75 25.688l-68.438 68.438zM866.25 776.06l-184.31-98.062c-5.813-3.188-12.75-2.813-18.375.562s-9.188 9.563-9.188 16.125v196.31c0 6.563 3.376 12.75 9.188 16.125 3 1.688 6.375 2.625 9.563 2.625 3 0 6-.75 8.812-2.25l184.31-98.062c6.188-3.187 9.938-9.562 9.938-16.5s-3.75-13.312-9.938-16.5zm-174.38 83.438v-133.88l125.62 66.938z"></path></svg>