<svg xmlns="http://www.w3.org/2000/svg" width="1600" height="1600" viewBox="0 0 1200 1200" class="w-full h-auto" fill="#ffffff"><path d="M584.39 498.14c-52.734 0-102.47-4.547-140.16-12.75-30.656-6.703-71.438-19.031-71.438-48.469s40.781-41.766 71.438-48.469c37.641-8.203 87.422-12.75 140.16-12.75s102.47 4.547 140.11 12.75c30.656 6.703 71.438 19.031 71.438 48.469s-40.781 41.766-71.438 48.469c-37.641 8.203-87.375 12.75-140.11 12.75zm-167.02-61.219c7.828 3.75 22.312 8.766 46.594 13.219 33.469 6.188 76.266 9.61 120.42 9.61 44.203 0 86.953-3.376 120.42-9.61 24.281-4.453 38.766-9.516 46.594-13.219-7.828-3.75-22.312-8.766-46.594-13.219-33.469-6.14-76.266-9.61-120.42-9.61s-86.953 3.376-120.42 9.61c-24.281 4.453-38.766 9.516-46.594 13.219z"></path><path d="M584.39 721.4c-116.67 0-211.6-94.781-211.6-211.31v-73.219c0-10.594 8.625-19.172 19.219-19.172s19.219 8.578 19.219 19.172v73.219c0 95.344 77.672 172.92 173.21 172.92 95.484 0 173.16-77.578 173.16-172.92v-73.219c0-10.594 8.578-19.172 19.172-19.172s19.219 8.578 19.219 19.172v73.219c0 116.53-94.922 211.31-211.6 211.31z"></path><path d="M747.19 631.74c-8.531.047-16.078-5.578-18.516-13.734-2.39-8.203.844-16.969 8.016-21.609 48.422-31.641 83.672-58.594 104.77-80.109 19.5-19.875 20.672-28.781 20.719-30.281-.985-1.031-7.641-6.656-33.75-8.203-19.312-1.219-39.375.562-49.594 1.64-10.406.985-19.734-6.609-20.86-17.062-1.124-10.406 6.329-19.828 16.735-21.094 12.375-1.359 36.656-3.328 59.812-1.546 13.219 1.03 53.39 4.125 63.844 33.328 12.89 36.094-29.11 82.547-140.39 155.34v-.047c-3.141 2.203-6.938 3.375-10.781 3.375z"></path><path d="M899.16 1099.2H253.79c-10.594 0-19.172-8.625-19.172-19.219v-802.78c0-10.641 8.578-19.219 19.172-19.219h645.37c36.562.047 66.188 29.672 66.234 66.234v708.71c-.047 36.609-29.672 66.234-66.234 66.281zM273 1060.762h626.16c15.375 0 27.844-12.469 27.844-27.844v-708.74c-.047-15.328-12.469-27.75-27.844-27.797H273z"></path><path d="M253.78 296.39c-9.422 0-17.484-6.89-18.938-16.219a19.209 19.209 0 0 1 13.125-21.281l484.6-154.92c20.156-6.422 42.188-2.906 59.25 9.563a66.22 66.22 0 0 1 27.234 53.53v110.16c0 10.594-8.578 19.172-19.219 19.172-10.594 0-19.172-8.578-19.172-19.171v-110.16c-.047-8.907-4.266-17.25-11.484-22.5-7.172-5.25-16.406-6.704-24.891-3.985l-484.64 154.87c-1.875.61-3.844.938-5.86.938zM799.82 825.61H400.16c-10.594 0-19.219-8.625-19.219-19.219s8.625-19.172 19.219-19.172h399.66c10.594 0 19.219 8.578 19.219 19.172s-8.625 19.219-19.219 19.219zM799.82 964.78H400.16c-10.594 0-19.219-8.578-19.219-19.172s8.625-19.219 19.219-19.219h399.66c10.594 0 19.219 8.625 19.219 19.219s-8.625 19.172-19.219 19.172z"></path></svg>