<svg xmlns="http://www.w3.org/2000/svg" width="1600" height="1600" viewBox="0 0 1200 1200" class="w-full h-auto" fill="#ffffff"><path d="M1065.6 296.81H798.98V142.87a18.752 18.752 0 0 0-18.75-18.75H419.85a18.752 18.752 0 0 0-18.75 18.75v153.94H134.48a78.174 78.174 0 0 0-55.285 22.902 78.173 78.173 0 0 0-22.902 55.285v622.69a78.174 78.174 0 0 0 22.902 55.285 78.173 78.173 0 0 0 55.285 22.902h931.12a78.174 78.174 0 0 0 55.285-22.902 78.173 78.173 0 0 0 22.902-55.285v-622.69a78.174 78.174 0 0 0-22.902-55.285 78.173 78.173 0 0 0-55.285-22.902zm-627-135.19h322.88v135.19H438.6zM134.48 334.31h931.12a40.678 40.678 0 0 1 28.77 11.918 40.676 40.676 0 0 1 11.918 28.77v349.69H93.788v-349.69a40.678 40.678 0 0 1 11.918-28.77 40.676 40.676 0 0 1 28.77-11.918zM600.04 802.5a18.752 18.752 0 0 0-18.75 18.75v43.5h-89.25V762.19h216v102.56h-89.25v-43.5a18.752 18.752 0 0 0-18.75-18.75zm465.56 235.88H134.48a40.678 40.678 0 0 1-28.77-11.918 40.676 40.676 0 0 1-11.918-28.77v-235.5h360.75v121.31a18.752 18.752 0 0 0 18.75 18.75h108v51a18.752 18.752 0 0 0 28.125 16.238 18.754 18.754 0 0 0 9.375-16.238V902.44h108a18.752 18.752 0 0 0 18.75-18.75v-121.5h360.75v235.5a40.678 40.678 0 0 1-11.918 28.77 40.676 40.676 0 0 1-28.77 11.918z"></path></svg>